<?xml version="1.0" encoding="utf-8"?>
<!-- Generator: Adobe Illustrator 24.1.2, SVG Export Plug-In . SVG Version: 6.00 Build 0)  -->
<svg version="1.1" id="Calque_1" xmlns="http://www.w3.org/2000/svg" xmlns:xlink="http://www.w3.org/1999/xlink" x="0px" y="0px"
	 viewBox="0 0 44.08 58.61" style="enable-background:new 0 0 44.08 58.61;" xml:space="preserve">
<g>
	<path d="M43.84,43.65c-0.15-0.09-0.32-0.14-0.52-0.14c-0.24,0-0.37,0.06-0.37,0.19c-1.38,4.18-3.53,7.28-6.47,9.28
		c-1.97,1.34-4.37,2.23-7.2,2.67v2.96h12.45c0.56,0,0.94-0.11,1.13-0.33c0.18-0.22,0.28-0.58,0.28-1.08c0-4,0.31-8.44,0.94-13.32
		C44.08,43.82,44,43.74,43.84,43.65z M40.04,13.4c0.07,0.19,0.27,0.26,0.61,0.19c0.35-0.06,0.52-0.15,0.52-0.28L40.98,0.84
		c0-0.56-0.31-0.84-0.94-0.84H29.28v3.02c2.23,0.39,4.13,1.16,5.7,2.32C37.35,7.09,39.04,9.78,40.04,13.4z M36.48,37.69
		c0,0.13,0.19,0.19,0.56,0.19c0.38,0,0.57-0.06,0.57-0.19c0-1.25-0.07-2.93-0.19-5.06l-0.1-4.5l0.1-8.44c0-0.19-0.17-0.28-0.52-0.28
		c-0.34,0-0.51,0.09-0.51,0.28c0,2.25-0.97,4-2.91,5.25c-1.12,0.72-2.52,1.24-4.2,1.53v3.37c1.7,0.36,3.11,0.97,4.24,1.81
		C35.49,33.11,36.48,35.13,36.48,37.69z M0,0.56c0,0.37,0.1,0.56,0.28,0.56c1.94,0,3.38,0.17,4.32,0.51
		c0.93,0.35,1.56,0.96,1.87,1.83c0.31,0.88,0.47,2.26,0.47,4.13v43.42c0,1.87-0.16,3.27-0.47,4.17c-0.31,0.91-0.92,1.52-1.83,1.83
		c-0.9,0.31-2.36,0.47-4.36,0.47C0.1,57.48,0,57.67,0,58.04c0,0.38,0.1,0.57,0.28,0.57h23.73v-2.63h-2.35
		c-1.5,0-2.59-0.44-3.28-1.31c-0.69-0.88-1.03-2.22-1.03-4.04V29.44h6.66v-2.62h-6.66V7.69c0-1.69,0.44-2.94,1.31-3.76
		c0.88-0.81,2.25-1.22,4.13-1.22h1.22V0H0.28C0.1,0,0,0.18,0,0.56z"/>
</g>
</svg>
