<?xml version="1.0" encoding="utf-8"?>
<!-- Generator: Adobe Illustrator 24.1.2, SVG Export Plug-In . SVG Version: 6.00 Build 0)  -->
<svg version="1.1" id="Calque_1" xmlns="http://www.w3.org/2000/svg" xmlns:xlink="http://www.w3.org/1999/xlink" x="0px" y="0px"
	 viewBox="0 0 236.41 60.77" style="enable-background:new 0 0 236.41 60.77;" xml:space="preserve">
<g>
	<path d="M43.84,44.69c-0.15-0.09-0.32-0.14-0.52-0.14c-0.24,0-0.37,0.06-0.37,0.19c-1.38,4.18-3.53,7.28-6.47,9.28
		c-1.97,1.34-4.37,2.23-7.2,2.67v2.96h12.45c0.56,0,0.94-0.11,1.13-0.33c0.18-0.22,0.28-0.58,0.28-1.08c0-4,0.31-8.44,0.94-13.32
		C44.08,44.86,44,44.78,43.84,44.69z M40.04,14.44c0.07,0.19,0.27,0.26,0.61,0.19c0.35-0.06,0.52-0.15,0.52-0.28L40.98,1.88
		c0-0.56-0.31-0.84-0.94-0.84H29.28v3.02c2.23,0.39,4.13,1.16,5.7,2.32C37.35,8.13,39.04,10.82,40.04,14.44z M36.48,38.73
		c0,0.13,0.19,0.19,0.56,0.19c0.38,0,0.57-0.06,0.57-0.19c0-1.25-0.07-2.93-0.19-5.06l-0.1-4.5l0.1-8.44c0-0.19-0.17-0.28-0.52-0.28
		c-0.34,0-0.51,0.09-0.51,0.28c0,2.25-0.97,4-2.91,5.25c-1.12,0.72-2.52,1.24-4.2,1.53v3.37c1.7,0.36,3.11,0.97,4.24,1.81
		C35.49,34.15,36.48,36.17,36.48,38.73z M0,1.6c0,0.37,0.1,0.56,0.28,0.56c1.94,0,3.38,0.17,4.32,0.51C5.53,3.02,6.16,3.63,6.47,4.5
		c0.31,0.88,0.47,2.26,0.47,4.13v43.42c0,1.87-0.16,3.27-0.47,4.17c-0.31,0.91-0.92,1.52-1.83,1.83c-0.9,0.31-2.36,0.47-4.36,0.47
		C0.1,58.52,0,58.71,0,59.08c0,0.38,0.1,0.57,0.28,0.57h23.73v-2.63h-2.35c-1.5,0-2.59-0.44-3.28-1.31
		c-0.69-0.88-1.03-2.22-1.03-4.04V30.48h6.66v-2.62h-6.66V8.73c0-1.69,0.44-2.94,1.31-3.76c0.88-0.81,2.25-1.22,4.13-1.22h1.22V1.04
		H0.28C0.1,1.04,0,1.22,0,1.6z M92.74,1.88c0-0.56-0.31-0.84-0.93-0.84H52.05c-0.19,0-0.28,0.18-0.28,0.56
		c0,0.37,0.09,0.56,0.28,0.56c1.93,0,3.37,0.17,4.31,0.51c0.94,0.35,1.56,0.96,1.87,1.83c0.32,0.88,0.48,2.26,0.48,4.13v43.42
		c0,1.87-0.18,3.27-0.52,4.17c-0.34,0.91-1.02,1.52-2.02,1.83s-2.59,0.47-4.78,0.47c-0.19,0-0.28,0.19-0.28,0.56
		c0,0.38,0.09,0.57,0.28,0.57c2.19,0,3.91-0.04,5.16-0.1l7.03-0.09l9.56,0.09c1.44,0.06,3.44,0.1,6.01,0.1
		c0.12,0,0.19-0.19,0.19-0.57c0-0.37-0.07-0.56-0.19-0.56c-2.94,0-5.1-0.19-6.47-0.56c-1.38-0.38-2.32-1.04-2.82-1.97
		c-0.5-0.94-0.75-2.38-0.75-4.32V31.61h6.66c3.63,0,6.42,0.73,8.39,2.2c1.97,1.47,2.96,3.46,2.96,5.96c0,0.18,0.19,0.28,0.56,0.28
		s0.57-0.1,0.57-0.28l-0.1-4.97c-0.06-1.01-0.1-2.5-0.1-4.51l0.1-8.53c0-0.12-0.19-0.19-0.56-0.19c-0.38,0-0.57,0.07-0.57,0.19
		c0,2.25-0.95,4.02-2.86,5.3c-1.9,1.28-4.67,1.92-8.29,1.92h-6.76V8.73c0-1.69,0.44-2.94,1.32-3.76c0.87-0.81,2.25-1.22,4.12-1.22
		h2.82c3.87,0,7,0.88,9.37,2.63c2.38,1.75,4.07,4.44,5.07,8.06c0.06,0.19,0.26,0.26,0.61,0.19c0.34-0.06,0.51-0.15,0.51-0.28
		L92.74,1.88z M138.6,36.62c-1.31-2.15-2.91-3.98-4.78-5.48c-1.88-1.5-4.38-3.25-7.5-5.25c-2.88-1.88-5.16-3.48-6.85-4.79
		s-3.11-2.84-4.26-4.59c-1.16-1.75-1.74-3.75-1.74-6c0-2.75,0.8-4.85,2.39-6.29c1.59-1.43,3.64-2.15,6.14-2.15
		c3.75,0,6.68,1.37,8.77,4.12c2.09,2.75,3.92,6.1,5.49,10.04l0.75,1.78c0.06,0.19,0.25,0.23,0.56,0.14s0.47-0.23,0.47-0.42V3.94
		c0-0.44-0.09-0.79-0.28-1.07c-0.19-0.29-0.57-0.55-1.13-0.8c-1.37-0.57-3.19-1.05-5.44-1.46c-2.25-0.4-4.47-0.61-6.66-0.61
		c-3.31,0-6.47,0.55-9.47,1.64c-3,1.1-5.45,2.79-7.36,5.07c-1.91,2.28-2.86,5.08-2.86,8.39c0,2.63,0.6,4.91,1.78,6.85
		c1.19,1.94,2.61,3.59,4.27,4.97c1.66,1.37,3.98,3.03,6.99,4.97c3.06,2,5.47,3.72,7.22,5.15c1.75,1.44,3.23,3.19,4.45,5.26
		c1.22,2.06,1.83,4.47,1.83,7.22c0,3.25-0.81,5.55-2.44,6.89c-1.62,1.34-3.69,2.02-6.19,2.02c-2.75,0-5.2-0.91-7.36-2.72
		c-2.15-1.82-3.94-3.91-5.35-6.29c-1.4-2.37-3.04-5.47-4.92-9.28c-0.06-0.25-0.25-0.36-0.56-0.33c-0.31,0.03-0.47,0.17-0.47,0.42
		v0.1l0.28,14.91c0,0.5,0.08,0.86,0.24,1.08c0.15,0.22,0.39,0.45,0.7,0.7c1.06,0.94,3.13,1.8,6.19,2.58c3.06,0.78,6,1.17,8.82,1.17
		c3.81,0,7.26-0.7,10.36-2.11c3.09-1.4,5.51-3.37,7.27-5.91c1.74-2.53,2.62-5.42,2.62-8.67C140.57,41.26,139.92,38.78,138.6,36.62z
		 M203.63,42.39c-0.34-0.06-0.54,0.03-0.6,0.28c-2.51,5.44-5.33,9.49-8.49,12.15c-3.16,2.65-6.74,3.98-10.74,3.98
		c-4.25,0-8.05-1.39-11.39-4.17c-3.35-2.78-5.94-6.55-7.78-11.3c-1.85-4.75-2.77-10-2.77-15.75c0-7.7,1.69-13.82,5.06-18.39
		c3.38-4.56,8.16-6.84,14.35-6.84c4.69,0,8.81,1.34,12.38,4.03c3.56,2.69,6.4,6.5,8.53,11.44c0.06,0.25,0.25,0.34,0.56,0.28
		s0.47-0.18,0.47-0.37l-1.12-13.04c-0.13-0.68-0.27-1.17-0.42-1.45c-0.16-0.28-0.52-0.52-1.08-0.71c-1.69-0.75-4.03-1.35-7.04-1.82
		c-3-0.47-5.87-0.71-8.62-0.71c-6.13,0-11.87,1.25-17.21,3.75c-5.35,2.51-9.63,6.04-12.85,10.6c-3.22,4.57-4.83,9.82-4.83,15.76
		c0,5.06,1.2,9.92,3.61,14.58c2.41,4.66,6.18,8.5,11.3,11.53c5.13,3.04,11.5,4.55,19.13,4.55c5.88,0,11.6-1.03,17.16-3.09
		c0.57-0.25,0.93-0.49,1.08-0.71c0.16-0.22,0.3-0.7,0.42-1.45l1.41-12.75C204.15,42.58,203.98,42.45,203.63,42.39z M236.13,58.52
		c-2,0-3.46-0.16-4.36-0.47c-0.91-0.31-1.52-0.9-1.83-1.78c-0.31-0.87-0.47-2.28-0.47-4.22V8.82c0-1.88,0.16-3.27,0.47-4.18
		c0.31-0.9,0.94-1.54,1.87-1.92c0.94-0.37,2.38-0.56,4.32-0.56c0.19,0,0.28-0.19,0.28-0.56c0-0.38-0.09-0.56-0.28-0.56l-4.78,0.09
		c-2.88,0.12-5.29,0.19-7.22,0.19c-1.76,0-4.07-0.07-6.94-0.19l-5.07-0.09c-0.13,0-0.19,0.18-0.19,0.56c0,0.37,0.06,0.56,0.19,0.56
		c2,0,3.47,0.17,4.41,0.51c0.94,0.35,1.57,0.96,1.92,1.83c0.34,0.88,0.52,2.26,0.52,4.13v43.42c0,1.87-0.18,3.27-0.52,4.17
		c-0.35,0.91-0.98,1.52-1.92,1.83s-2.41,0.47-4.41,0.47c-0.13,0-0.19,0.19-0.19,0.56c0,0.38,0.06,0.57,0.19,0.57
		c2.12,0,3.81-0.04,5.07-0.1l6.94-0.09l7.12,0.09c1.19,0.06,2.82,0.1,4.88,0.1c0.19,0,0.28-0.19,0.28-0.57
		C236.41,58.71,236.32,58.52,236.13,58.52z"/>
</g>
</svg>
